<svg width="460" height="710" viewBox="0 0 460 710" fill="none" xmlns="http://www.w3.org/2000/svg">
<path d="M219.573 12.7273C298.169 3.16831 461.025 80.2595 411.726 326.491C375.349 508.465 344.99 544.488 356.231 561.393C367.56 578.387 384.642 627.421 356.231 649.371C332.953 667.427 308.524 653.62 289.495 636.626C294.983 664.241 268.43 699.202 242.851 701.237C203.642 704.424 149.209 669.374 106.459 614.676C35.8288 524.308 -17.8075 291.53 21.6674 176.734C52.8225 86.2781 103.627 26.8887 219.573 12.7273Z" fill="white"/>
<path d="M237.893 710C196.56 710 143.1 675.393 99.8197 619.987C28.7471 528.999 -26.8364 291.884 13.7006 173.902C49.4582 69.7273 89.1986 21.0474 191.78 2.63759C194.967 2.10654 197.091 1.48698 200.012 1.13294C202.932 0.778907 208.686 0.60189 208.686 0.60189C212.757 0.247854 216.386 0.159345 220.28 0.0708367C270.199 -1.3453 323.924 18.3922 368.532 66.4524C407.476 108.494 448.102 188.064 420.133 328.084C400.75 425.179 382.959 481.116 372.338 514.484C364.904 537.939 360.39 552.1 363.399 556.703C374.905 573.962 395.793 629.545 361.54 656.098C342.865 670.525 321.446 669.817 297.902 653.885C296.044 664.329 291.264 674.951 284.095 684.509C273.031 699.202 257.896 708.584 243.646 709.734C241.788 709.911 239.929 710 237.982 710H237.893ZM209.04 18.5692C193.285 19.2772 179.212 23.0831 163.812 26.6235C86.5434 44.2367 60.4332 90.1728 29.7207 179.478C-9.31169 292.946 44.5017 521.742 113.184 609.542C154.43 662.294 206.296 695.839 242.23 692.829C251.524 692.033 262.41 684.952 270.465 674.242C279.316 662.559 283.387 649.106 281.174 638.219L276.306 613.525L295.159 630.253C325.163 656.895 341.449 650.079 351.096 642.556C374.197 624.677 359.327 581.131 349.237 565.996C341.714 554.667 345.874 541.391 356.141 509.262C366.674 476.248 384.198 420.93 403.493 324.721C430.046 191.692 392.43 117.079 356.141 77.9586C314.542 33.0846 283.918 18.0381 224.971 17.6841C223.112 17.6841 221.254 17.6841 219.484 17.8611L209.217 18.4807L209.04 18.5692Z" fill="black"/>
<path d="M436.239 611.224H255.15C249.397 611.224 187.972 576.617 154.87 557.676C149.117 554.401 151.506 545.639 158.144 545.639H328.347C329.497 545.639 330.56 545.904 331.533 546.435C344.721 554.047 443.762 611.135 436.328 611.135L436.239 611.224Z" fill="white"/>
<path d="M436.241 619.721H255.152C251.878 619.721 246.301 619.721 150.623 565.111C144.693 561.748 141.861 555.021 143.631 548.383C145.401 541.745 151.243 537.231 158.058 537.231H328.261C330.916 537.231 333.394 537.85 335.607 539.178C447.393 603.524 446.862 605.382 444.738 613.26L443.057 619.544L436.153 619.721H436.241ZM255.949 602.727H409.777C391.279 591.221 361.717 573.785 327.641 554.136H165.67C223.82 587.238 250.284 600.869 255.86 602.727H255.949Z" fill="black"/>
<path d="M227.186 447.394C227.186 447.394 264.625 536.965 236.303 553.958C207.98 571.041 160.628 529.53 147.263 441.552" fill="white"/>
<path d="M227.186 447.394C227.186 447.394 229.222 451.2 232.32 458.103C235.417 465.007 239.577 474.92 243.472 487.4C245.419 493.595 247.366 500.411 248.782 507.845C250.198 515.28 251.438 523.246 250.995 531.743C250.818 535.991 250.198 540.505 248.694 545.019C247.189 549.444 244.357 554.135 239.843 557.233C235.86 559.977 230.727 561.836 225.77 562.278C220.725 562.809 215.769 562.013 211.166 560.597C202.05 557.41 194.438 551.923 188.065 545.639C181.604 539.443 176.559 532.362 172.134 525.37C167.708 518.289 164.256 511.12 161.424 504.128C158.503 497.224 156.291 490.409 154.52 484.125C150.98 471.557 149.298 460.847 148.413 453.324C147.882 449.607 147.705 446.597 147.528 444.65C147.351 442.614 147.263 441.552 147.263 441.552C147.263 441.552 148.325 445.712 150.272 452.97C152.219 460.228 155.228 470.495 159.742 482.355C164.256 494.215 170.541 507.757 179.214 520.679C183.551 527.14 188.685 533.336 194.438 538.912C200.191 544.399 206.918 549.002 214.087 551.392C221.256 553.87 228.779 553.339 234.532 549.444C239.666 546.081 242.056 538.469 242.587 531.035C243.206 523.511 242.587 515.9 241.702 508.819C240.728 501.65 239.489 494.923 238.161 488.639C235.417 476.159 232.585 465.804 230.549 458.634C228.514 451.377 227.186 447.305 227.186 447.305V447.394Z" fill="black"/>
<path d="M289.761 438.898C289.761 438.898 252.321 528.469 280.644 545.462C308.967 562.545 356.319 521.034 369.684 433.056" fill="white"/>
<path d="M289.759 438.897C289.759 438.897 287.723 442.703 284.625 449.607C281.528 456.511 277.368 466.424 273.473 478.903C271.526 485.099 269.579 491.914 268.163 499.349C266.747 506.784 265.507 514.749 265.95 523.246C266.127 527.495 266.747 532.009 268.251 536.523C269.756 540.948 272.588 545.639 277.102 548.737C281.085 551.481 286.219 553.339 291.175 553.782C296.22 554.313 301.177 553.516 305.779 552.1C314.895 548.914 322.507 543.426 328.88 537.142C335.341 530.947 340.386 523.866 344.811 516.874C349.237 509.793 352.689 502.624 355.521 495.632C358.442 488.728 360.654 481.913 362.425 475.629C365.965 463.06 367.647 452.351 368.532 444.827C369.063 441.11 369.24 438.101 369.417 436.065C369.594 434.029 369.682 432.967 369.682 432.967C369.682 432.967 368.62 437.127 366.673 444.385C364.726 451.643 361.717 461.91 357.203 473.77C352.689 485.63 346.405 499.172 337.731 512.094C333.394 518.555 328.26 524.751 322.507 530.327C316.754 535.815 310.027 540.417 302.858 542.807C295.689 545.285 288.166 544.754 282.413 540.86C277.279 537.496 274.889 529.884 274.358 522.45C273.739 514.926 274.358 507.315 275.243 500.234C276.217 493.065 277.456 486.338 278.784 480.054C281.528 467.574 284.36 457.219 286.396 450.049C288.431 442.792 289.759 438.72 289.759 438.72V438.897Z" fill="black"/>
<path d="M435.536 445.889H255.775C247.465 445.889 240.729 452.625 240.729 460.935V596.177C240.729 604.487 247.465 611.223 255.775 611.223H435.536C443.846 611.223 450.583 604.487 450.583 596.177V460.935C450.583 452.625 443.846 445.889 435.536 445.889Z" fill="white"/>
<path d="M436.243 619.721H255.154C242.585 619.721 232.318 609.454 232.318 596.885V460.316C232.318 447.748 242.585 437.481 255.154 437.481H436.243C448.811 437.481 459.078 447.748 459.078 460.316V596.885C459.078 609.454 448.811 619.721 436.243 619.721ZM255.154 454.386C251.967 454.386 249.224 457.13 249.224 460.316V596.885C249.224 600.072 251.967 602.815 255.154 602.815H436.243C439.429 602.815 442.173 600.072 442.173 596.885V460.316C442.173 457.13 439.429 454.386 436.243 454.386H255.154Z" fill="black"/>
<path d="M361.01 533.514C359.24 529.443 354.638 526.965 346.406 525.106C345.433 524.929 344.548 524.664 343.84 524.487C338.618 522.982 337.29 521.389 337.29 518.556C337.29 515.459 339.857 513.6 343.84 513.069C344.636 512.98 345.433 512.892 346.318 512.892C351.451 512.892 355.08 514.928 355.788 516.609C357.824 515.901 359.063 515.193 359.063 513.423C359.063 510.148 354.726 507.404 346.583 507.404C345.698 507.404 344.725 507.404 343.84 507.581C337.113 508.466 330.652 512.626 330.652 519.707C330.652 524.929 334.015 528.735 343.84 531.036C343.928 531.036 344.105 531.036 344.194 531.036C352.956 532.983 355.523 534.665 355.523 538.294C355.523 541.746 351.982 544.667 345.61 544.667C344.99 544.667 344.459 544.667 343.928 544.667C337.29 544.312 333.75 541.746 332.422 539.267C330.829 539.976 329.678 541.48 329.678 543.427C329.678 547.41 335.608 549.889 343.928 550.066C344.194 550.066 344.459 550.066 344.813 550.066C351.717 550.066 357.47 547.676 360.214 543.693C360.214 543.693 360.214 543.693 360.302 543.604C360.302 543.604 360.391 543.427 360.479 543.339C360.568 543.162 360.656 542.985 360.745 542.896C360.745 542.896 360.745 542.896 360.745 542.808C360.745 542.808 360.922 542.454 361.099 542.011C361.099 542.011 362.869 537.94 361.099 533.868L361.01 533.514ZM333.307 518.733C333.307 518.733 331.891 518.379 331.979 518.202C332.865 513.777 335.608 510.679 339.945 509.263C341.184 508.82 342.512 508.643 343.84 508.466C346.76 508.201 349.77 508.466 352.602 509.086C352.956 509.086 353.222 509.351 353.576 509.44C353.576 509.44 354.018 509.706 353.753 509.617C350.566 508.909 347.114 508.643 343.84 509.174C342.778 509.351 341.627 509.617 340.565 510.06C336.582 511.564 334.104 514.574 333.307 518.733Z" fill="black"/>
<path d="M367.383 259.757C407.662 259.757 440.314 225.559 440.314 183.374C440.314 141.189 407.662 106.991 367.383 106.991C327.104 106.991 294.452 141.189 294.452 183.374C294.452 225.559 327.104 259.757 367.383 259.757Z" fill="black"/>
<path d="M289.495 183.373C289.495 138.499 324.456 102.034 367.382 102.034C410.309 102.034 445.27 138.499 445.27 183.373C445.27 228.247 410.309 264.713 367.382 264.713C324.456 264.713 289.495 228.247 289.495 183.373ZM299.496 183.373C299.496 222.76 329.943 254.8 367.382 254.8C404.822 254.8 435.269 222.76 435.269 183.373C435.269 143.987 404.822 111.947 367.382 111.947C329.943 111.947 299.496 143.987 299.496 183.373Z" fill="white"/>
<path d="M367.382 244.798C399.79 244.798 426.063 217.298 426.063 183.373C426.063 149.449 399.79 121.948 367.382 121.948C334.973 121.948 308.7 149.449 308.7 183.373C308.7 217.298 334.973 244.798 367.382 244.798Z" fill="white"/>
<path d="M337.202 215.855C337.202 232.849 349.062 246.656 363.578 246.656C378.093 246.656 389.953 232.849 389.953 215.855C389.953 198.862 378.093 185.054 363.578 185.054C349.062 185.054 337.202 198.862 337.202 215.855Z" fill="black"/>
<path d="M197.799 259.757C238.078 259.757 270.73 225.559 270.73 183.374C270.73 141.189 238.078 106.991 197.799 106.991C157.52 106.991 124.868 141.189 124.868 183.374C124.868 225.559 157.52 259.757 197.799 259.757Z" fill="black"/>
<path d="M119.91 183.373C119.91 138.499 154.871 102.034 197.798 102.034C240.725 102.034 275.686 138.499 275.686 183.373C275.686 228.247 240.725 264.713 197.798 264.713C154.871 264.713 119.91 228.247 119.91 183.373ZM129.912 183.373C129.912 222.76 160.359 254.8 197.798 254.8C235.237 254.8 265.684 222.76 265.684 183.373C265.684 143.987 235.237 111.947 197.798 111.947C160.359 111.947 129.912 143.987 129.912 183.373Z" fill="white"/>
<path d="M197.798 244.798C230.206 244.798 256.479 217.298 256.479 183.373C256.479 149.449 230.206 121.948 197.798 121.948C165.389 121.948 139.116 149.449 139.116 183.373C139.116 217.298 165.389 244.798 197.798 244.798Z" fill="white"/>
<path d="M184.611 215.855C184.611 232.849 196.471 246.656 210.986 246.656C225.502 246.656 237.362 232.849 237.362 215.855C237.362 198.862 225.502 185.054 210.986 185.054C196.471 185.054 184.611 198.862 184.611 215.855Z" fill="black"/>
<path d="M319.147 283.034C319.147 299.85 305.517 313.392 288.789 313.392C272.061 313.392 258.43 299.762 258.43 283.034H319.236H319.147Z" fill="black"/>
</svg>
