<svg width="31" height="30" viewBox="0 0 31 30" fill="none" xmlns="http://www.w3.org/2000/svg">
<g clip-path="url(#clip0_53_649)">
<path d="M15.5 0C7.25523 0 0.571411 6.68382 0.571411 14.9286C0.571411 21.9295 5.39155 27.8042 11.8938 29.4176V19.4907H8.81557V14.9286H11.8938V12.9628C11.8938 7.88169 14.1934 5.52656 19.182 5.52656C20.1278 5.52656 21.7598 5.71227 22.4274 5.89738V10.0326C22.0751 9.99557 21.4631 9.97706 20.7029 9.97706C18.2552 9.97706 17.3093 10.9044 17.3093 13.3151V14.9286H22.1856L21.3478 19.4907H17.3093V29.7479C24.7014 28.8551 30.4292 22.5613 30.4292 14.9286C30.4286 6.68382 23.7447 0 15.5 0Z" fill="white"/>
</g>
<defs>
<clipPath id="clip0_53_649">
<rect width="29.8571" height="29.8571" fill="white" transform="translate(0.571411)"/>
</clipPath>
</defs>
</svg>
