<svg width="30" height="30" viewBox="0 0 30 30" fill="none" xmlns="http://www.w3.org/2000/svg">
<g clip-path="url(#clip0_53_652)">
<path d="M21.3819 0H16.35V20.3374C16.35 22.7607 14.4148 24.7512 12.0064 24.7512C9.598 24.7512 7.66271 22.7607 7.66271 20.3374C7.66271 17.9576 9.555 16.0103 11.8774 15.9238V10.8178C6.75956 10.9043 2.63092 15.1017 2.63092 20.3374C2.63092 25.6166 6.84557 29.8571 12.0494 29.8571C17.2532 29.8571 21.4678 25.5733 21.4678 20.3374V9.90909C23.3601 11.2938 25.6825 12.1159 28.1339 12.1592V7.05321C24.3493 6.9234 21.3819 3.80786 21.3819 0Z" fill="white"/>
</g>
<defs>
<clipPath id="clip0_53_652">
<rect width="29.8571" height="29.8571" fill="white" transform="translate(0.142822)"/>
</clipPath>
</defs>
</svg>
