<svg width="31" height="30" viewBox="0 0 31 30" fill="none" xmlns="http://www.w3.org/2000/svg">
<g clip-path="url(#clip0_53_650)">
<path d="M15.7143 2.68831C19.703 2.68831 20.1754 2.7058 21.744 2.77578C23.2019 2.83993 23.9891 3.08485 24.514 3.28895C25.2079 3.5572 25.7094 3.88376 26.2284 4.40276C26.7533 4.9276 27.074 5.42327 27.3422 6.11722C27.5463 6.64205 27.7913 7.43513 27.8554 8.88717C27.9254 10.4617 27.9429 10.934 27.9429 14.9169C27.9429 18.9056 27.9254 19.378 27.8554 20.9467C27.7913 22.4045 27.5463 23.1918 27.3422 23.7166C27.074 24.4105 26.7474 24.9121 26.2284 25.4311C25.7036 25.9559 25.2079 26.2766 24.514 26.5449C23.9891 26.749 23.1961 26.9939 21.744 27.058C20.1695 27.128 19.6972 27.1455 15.7143 27.1455C11.7255 27.1455 11.2532 27.128 9.68454 27.058C8.22667 26.9939 7.43942 26.749 6.91458 26.5449C6.22064 26.2766 5.71913 25.9501 5.20013 25.4311C4.6753 24.9062 4.35457 24.4105 4.08632 23.7166C3.88222 23.1918 3.6373 22.3987 3.57315 20.9467C3.50317 19.3722 3.48568 18.8998 3.48568 14.9169C3.48568 10.9282 3.50317 10.4558 3.57315 8.88717C3.6373 7.4293 3.88222 6.64205 4.08632 6.11722C4.35457 5.42327 4.68113 4.92176 5.20013 4.40276C5.72496 3.87793 6.22064 3.5572 6.91458 3.28895C7.43942 3.08485 8.2325 2.83993 9.68454 2.77578C11.2532 2.7058 11.7255 2.68831 15.7143 2.68831ZM15.7143 0C11.6614 0 11.1541 0.0174944 9.56207 0.0874721C7.97591 0.15745 6.88543 0.414035 5.94073 0.781417C4.95521 1.16629 4.12131 1.67363 3.29324 2.50753C2.45934 3.3356 1.952 4.1695 1.56712 5.14919C1.19974 6.09972 0.943155 7.18437 0.873178 8.77054C0.8032 10.3684 0.785706 10.8757 0.785706 14.9286C0.785706 18.9814 0.8032 19.4888 0.873178 21.0808C0.943155 22.6669 1.19974 23.7574 1.56712 24.7021C1.952 25.6876 2.45934 26.5215 3.29324 27.3496C4.12131 28.1777 4.95521 28.6908 5.9349 29.0699C6.88543 29.4373 7.97008 29.6939 9.55624 29.7638C11.1482 29.8338 11.6556 29.8513 15.7084 29.8513C19.7613 29.8513 20.2687 29.8338 21.8607 29.7638C23.4468 29.6939 24.5373 29.4373 25.482 29.0699C26.4617 28.6908 27.2956 28.1777 28.1237 27.3496C28.9517 26.5215 29.4649 25.6876 29.8439 24.708C30.2113 23.7574 30.4679 22.6728 30.5379 21.0866C30.6079 19.4946 30.6254 18.9873 30.6254 14.9344C30.6254 10.8815 30.6079 10.3742 30.5379 8.7822C30.4679 7.19604 30.2113 6.10555 29.8439 5.16085C29.4766 4.1695 28.9692 3.3356 28.1353 2.50753C27.3072 1.67946 26.4733 1.16629 25.4937 0.787249C24.5431 0.419866 23.4585 0.163281 21.8723 0.0933036C20.2745 0.0174944 19.7672 0 15.7143 0Z" fill="white"/>
<path d="M15.7143 7.26025C11.4806 7.26025 8.0459 10.695 8.0459 14.9286C8.0459 19.1623 11.4806 22.597 15.7143 22.597C19.9479 22.597 23.3827 19.1623 23.3827 14.9286C23.3827 10.695 19.9479 7.26025 15.7143 7.26025ZM15.7143 19.9029C12.9677 19.9029 10.74 17.6753 10.74 14.9286C10.74 12.182 12.9677 9.95439 15.7143 9.95439C18.4609 9.95439 20.6885 12.182 20.6885 14.9286C20.6885 17.6753 18.4609 19.9029 15.7143 19.9029Z" fill="white"/>
<path d="M25.4762 6.95701C25.4762 7.94836 24.6714 8.74728 23.6859 8.74728C22.6945 8.74728 21.8956 7.94253 21.8956 6.95701C21.8956 5.96566 22.7004 5.16675 23.6859 5.16675C24.6714 5.16675 25.4762 5.97149 25.4762 6.95701Z" fill="white"/>
</g>
<defs>
<clipPath id="clip0_53_650">
<rect width="29.8571" height="29.8571" fill="white" transform="translate(0.785706)"/>
</clipPath>
</defs>
</svg>
