<svg width="31" height="30" viewBox="0 0 31 30" fill="none" xmlns="http://www.w3.org/2000/svg">
<g clip-path="url(#clip0_53_653)">
<path d="M28.0042 0H2.56144C1.34267 0 0.357147 0.962193 0.357147 2.15181V27.6995C0.357147 28.8891 1.34267 29.8571 2.56144 29.8571H28.0042C29.2229 29.8571 30.2143 28.8891 30.2143 27.7053V2.15181C30.2143 0.962193 29.2229 0 28.0042 0ZM9.21515 25.4427H4.78324V11.1906H9.21515V25.4427ZM6.9992 9.24872C5.57632 9.24872 4.42752 8.09992 4.42752 6.68287C4.42752 5.26582 5.57632 4.11702 6.9992 4.11702C8.41624 4.11702 9.56504 5.26582 9.56504 6.68287C9.56504 8.09408 8.41624 9.24872 6.9992 9.24872ZM25.7999 25.4427H21.3738V18.5149C21.3738 16.8646 21.3446 14.7361 19.0703 14.7361C16.7669 14.7361 16.417 16.5381 16.417 18.3983V25.4427H11.9968V11.1906H16.2421V13.1383H16.3004C16.8894 12.0187 18.3356 10.8349 20.4874 10.8349C24.9718 10.8349 25.7999 13.7856 25.7999 17.6227V25.4427Z" fill="white"/>
</g>
<defs>
<clipPath id="clip0_53_653">
<rect width="29.8571" height="29.8571" fill="white" transform="translate(0.357147)"/>
</clipPath>
</defs>
</svg>
