<svg width="30" height="30" viewBox="0 0 30 30" fill="none" xmlns="http://www.w3.org/2000/svg">
<path d="M0 29.8571L2.09871 22.1901C0.803655 19.9458 0.123161 17.4017 0.124405 14.793C0.128137 6.63699 6.76513 0 14.9199 0C18.8772 0.00124405 22.5919 1.54262 25.386 4.33924C28.1789 7.13586 29.7166 10.8531 29.7153 14.8067C29.7116 22.9639 23.0746 29.6009 14.9199 29.6009C12.4442 29.5996 10.0046 28.9788 7.84372 27.7995L0 29.8571ZM8.20698 25.1211C10.292 26.3589 12.2825 27.1003 14.9149 27.1016C21.6925 27.1016 27.2135 21.5855 27.2173 14.8042C27.2198 8.00918 21.7248 2.50054 14.9248 2.49805C8.14229 2.49805 2.62494 8.01416 2.62245 14.7942C2.62121 17.5622 3.43233 19.6348 4.79456 21.8032L3.55176 26.3415L8.20698 25.1211ZM22.373 18.3236C22.2809 18.1693 22.0346 18.0773 21.6638 17.8919C21.2944 17.7065 19.4768 16.8121 19.1372 16.6889C18.7988 16.5657 18.5525 16.5035 18.3049 16.8743C18.0586 17.2437 17.3495 18.0773 17.1343 18.3236C16.919 18.5699 16.7026 18.601 16.3331 18.4156C15.9636 18.2303 14.7718 17.8409 13.3598 16.5807C12.2613 15.6004 11.5186 14.3899 11.3034 14.0192C11.0882 13.6497 11.281 13.4494 11.4651 13.2653C11.6318 13.0998 11.8346 12.8336 12.02 12.6171C12.2078 12.4032 12.2688 12.2489 12.3932 12.0013C12.5164 11.755 12.4554 11.5385 12.3621 11.3532C12.2688 11.1691 11.5298 9.34902 11.2226 8.60881C10.9215 7.88851 10.6167 7.98554 10.3903 7.97435L9.68118 7.96191C9.43486 7.96191 9.03427 8.05396 8.69589 8.42469C8.35751 8.79542 7.40208 9.68864 7.40208 11.5087C7.40208 13.3287 8.72699 15.0866 8.91111 15.3329C9.09648 15.5792 11.5174 19.3138 15.2259 20.9149C16.1079 21.2956 16.7971 21.5233 17.3333 21.6937C18.2191 21.9749 19.0252 21.935 19.6622 21.8405C20.3725 21.7348 21.8492 20.946 22.1577 20.0827C22.4663 19.218 22.4663 18.4778 22.373 18.3236Z" fill="white"/>
</svg>
