<svg width="408" height="558" viewBox="0 0 408 558" fill="none" xmlns="http://www.w3.org/2000/svg">
<g clip-path="url(#clip0_54_1312)">
<path d="M317.39 40.7941C283.028 14.6714 248.014 5.74642 216.081 6.02403C184.147 5.74642 149.133 14.6714 114.771 40.7941C9.15945 121.064 76.8426 389.383 76.8426 389.383C96.3689 480.396 123.945 551.976 164.052 551.976C190.032 551.976 194.237 529.559 216.081 529.06C237.925 529.559 242.144 551.976 268.109 551.976C308.217 551.976 335.806 480.382 355.319 389.383C355.319 389.383 423.002 121.05 317.39 40.7941Z" fill="white"/>
<path d="M361.189 390.743C361.967 387.592 378.343 320.842 381.979 245.472C387.016 141.037 366.519 70.5533 321.04 36.0054C289.162 11.7843 253.871 -0.333124 216.136 2.285e-06C215.623 2.285e-06 215.123 2.285e-06 214.61 2.285e-06C177.375 2.285e-06 142.569 12.1036 111.121 36.0054C65.643 70.5672 45.1451 141.037 50.1829 245.486C53.8189 320.842 70.1811 387.578 70.9721 390.757C95.1199 503.298 125.568 558.014 164.052 558.014C179.831 558.014 188.658 550.852 196.457 544.55C202.813 539.4 207.837 535.334 216.081 535.098C224.324 535.334 229.348 539.4 235.704 544.55C243.504 550.866 252.344 558.014 268.109 558.014C306.593 558.014 337.042 503.298 361.189 390.757V390.743ZM215.942 523.05C203.521 523.341 195.749 529.629 188.894 535.181C181.747 540.969 175.571 545.966 164.052 545.966C124.805 545.966 98.1592 460.13 82.713 388.12L82.6574 387.911C81.9913 385.26 17.1115 122.549 118.393 45.5828C148.092 23.0135 180.886 11.6594 216.122 12.0481C251.178 11.6733 284.041 23.0135 313.74 45.5828C414.981 122.521 350.142 385.274 349.476 387.911L349.421 388.12C321.443 518.58 289.745 545.966 268.082 545.966C256.563 545.966 250.401 540.969 243.24 535.181C236.384 529.629 228.613 523.341 216.178 523.05H216.039H215.9H215.942Z" fill="black"/>
<path d="M128.358 236.825C85.6125 236.825 50.9604 200.514 50.9604 155.723C50.9604 110.931 85.6125 74.6202 128.358 74.6202C171.104 74.6202 205.756 110.931 205.756 155.723C205.756 200.514 171.104 236.825 128.358 236.825Z" fill="black"/>
<path d="M211.057 155.723C211.057 108.086 173.961 69.318 128.358 69.318C82.7548 69.318 45.6589 108.072 45.6589 155.723C45.6589 203.373 82.7548 242.127 128.358 242.127C173.961 242.127 211.057 203.373 211.057 155.723ZM200.454 155.723C200.454 197.516 168.119 231.523 128.358 231.523C88.5975 231.523 56.2617 197.516 56.2617 155.723C56.2617 113.929 88.5975 79.9225 128.358 79.9225C168.119 79.9225 200.454 113.929 200.454 155.723Z" fill="white"/>
<path d="M128.358 220.96C93.9744 220.96 66.1011 191.752 66.1011 155.723C66.1011 119.693 93.9744 90.4854 128.358 90.4854C162.741 90.4854 190.615 119.693 190.615 155.723C190.615 191.752 162.741 220.96 128.358 220.96Z" fill="white"/>
<path d="M127.931 188.381C112.448 188.381 99.8971 173.733 99.8971 155.665C99.8971 137.597 112.448 122.949 127.931 122.949C143.413 122.949 155.964 137.597 155.964 155.665C155.964 173.733 143.413 188.381 127.931 188.381Z" fill="black"/>
<path d="M301.972 236.825C259.226 236.825 224.574 200.514 224.574 155.723C224.574 110.931 259.226 74.6202 301.972 74.6202C344.717 74.6202 379.37 110.931 379.37 155.723C379.37 200.514 344.717 236.825 301.972 236.825Z" fill="black"/>
<path d="M301.972 242.127C347.575 242.127 384.671 203.373 384.671 155.723C384.671 108.072 347.575 69.318 301.972 69.318C256.369 69.318 219.273 108.072 219.273 155.723C219.273 203.373 256.369 242.127 301.972 242.127ZM301.972 79.9364C341.718 79.9364 374.068 113.943 374.068 155.736C374.068 197.53 341.732 231.536 301.972 231.536C262.211 231.536 229.875 197.53 229.875 155.736C229.875 113.943 262.211 79.9364 301.972 79.9364Z" fill="white"/>
<path d="M301.972 220.96C267.588 220.96 239.715 191.752 239.715 155.723C239.715 119.693 267.588 90.4854 301.972 90.4854C336.355 90.4854 364.229 119.693 364.229 155.723C364.229 191.752 336.355 220.96 301.972 220.96Z" fill="white"/>
<path d="M301.436 188.381C285.953 188.381 273.402 173.733 273.402 155.665C273.402 137.597 285.953 122.949 301.436 122.949C316.918 122.949 329.469 137.597 329.469 155.665C329.469 173.733 316.918 188.381 301.436 188.381Z" fill="black"/>
<path d="M319.001 378.251C319.001 378.251 356.152 454.453 383.658 445.723C411.165 436.992 411.248 381.957 361.301 322.48" fill="white"/>
<path d="M319 378.251C319 378.251 321.124 381.36 324.829 386.815C326.675 389.521 328.993 392.769 331.63 396.476C334.28 400.168 337.306 404.304 340.706 408.69C344.106 413.076 347.881 417.74 352.086 422.362C356.305 426.943 360.94 431.62 366.116 435.326C368.684 437.2 371.418 438.769 374.082 439.699C376.761 440.629 379.245 440.837 381.368 440.24C384.158 439.435 386.226 438.116 388.335 436.187C390.361 434.271 391.985 431.773 393.179 428.928C394.4 426.096 395.205 422.931 395.677 419.669C395.954 418.045 396.024 416.366 396.176 414.7C396.204 413.007 396.301 411.327 396.204 409.634C396.135 406.247 395.732 402.833 395.274 399.474C394.719 396.115 394.067 392.783 393.248 389.535C389.959 376.502 384.921 364.634 379.967 354.751C377.538 349.782 375.04 345.327 372.819 341.371C370.543 337.457 368.545 334 366.796 331.238C363.299 325.658 361.301 322.466 361.301 322.466C361.301 322.466 361.981 323.118 363.271 324.34C364.52 325.589 366.463 327.338 368.698 329.781C370.988 332.168 373.694 335.166 376.65 338.734C379.578 342.329 382.798 346.465 385.99 351.226C389.209 355.973 392.471 361.303 395.482 367.216C398.494 373.129 401.297 379.597 403.518 386.607C405.724 393.602 407.445 401.139 407.875 409.12C408.125 413.09 408.097 417.185 407.501 421.307C406.946 425.43 405.96 429.622 404.239 433.688C402.491 437.728 399.965 441.656 396.537 444.862C393.206 448.041 388.599 450.511 384.255 451.538C382.992 451.802 381.743 452.121 380.48 452.094C379.217 452.149 377.954 452.191 376.775 451.969C375.567 451.816 374.374 451.636 373.291 451.275C372.181 450.955 371.057 450.65 370.086 450.178C366.005 448.513 362.605 446.222 359.663 443.752C356.693 441.295 354.029 438.727 351.683 436.062C349.282 433.425 347.145 430.732 345.147 428.081C341.178 422.737 337.861 417.476 334.988 412.549C329.256 402.666 325.329 394.033 322.775 387.939C321.471 384.899 320.583 382.456 319.944 380.805C319.334 379.139 319.042 378.237 319.042 378.237L319 378.251Z" fill="black"/>
<path d="M319 378.251C319 378.251 356.152 454.453 383.658 445.723C411.164 436.992 411.247 381.957 361.3 322.48" fill="white"/>
<path d="M319 378.251C319 378.251 321.123 381.36 324.829 386.815C326.675 389.521 328.992 392.769 331.629 396.476C334.28 400.168 337.305 404.304 340.705 408.69C344.105 413.076 347.88 417.74 352.085 422.362C356.304 426.943 360.939 431.62 366.116 435.326C368.683 437.2 371.417 438.769 374.082 439.699C376.76 440.629 379.245 440.837 381.368 440.24C384.157 439.435 386.225 438.116 388.335 436.187C390.361 434.271 391.985 431.773 393.178 428.928C394.399 426.096 395.204 422.931 395.676 419.669C395.954 418.045 396.023 416.366 396.176 414.7C396.203 413.007 396.301 411.327 396.203 409.634C396.134 406.247 395.732 402.833 395.274 399.474C394.719 396.115 394.066 392.783 393.247 389.535C389.958 376.502 384.921 364.634 379.966 354.751C377.538 349.782 375.039 345.327 372.819 341.371C370.543 337.457 368.545 334 366.796 331.238C363.299 325.658 361.3 322.466 361.3 322.466C361.3 322.466 361.98 323.118 363.271 324.34C364.52 325.589 366.463 327.338 368.697 329.781C370.987 332.168 373.693 335.166 376.649 338.734C379.578 342.329 382.797 346.465 385.989 351.226C389.209 355.973 392.47 361.303 395.482 367.216C398.493 373.129 401.297 379.597 403.517 386.607C405.724 393.602 407.445 401.139 407.875 409.12C408.125 413.09 408.097 417.185 407.5 421.307C406.945 425.43 405.96 429.622 404.239 433.688C402.49 437.728 399.964 441.656 396.537 444.862C393.206 448.041 388.598 450.511 384.254 451.538C382.992 451.802 381.743 452.121 380.48 452.094C379.217 452.149 377.954 452.191 376.774 451.969C375.567 451.816 374.373 451.636 373.291 451.275C372.181 450.955 371.056 450.65 370.085 450.178C366.005 448.513 362.605 446.222 359.663 443.752C356.693 441.295 354.028 438.727 351.683 436.062C349.282 433.425 347.145 430.732 345.146 428.081C341.177 422.737 337.86 417.476 334.987 412.549C329.256 402.666 325.328 394.033 322.775 387.939C321.47 384.899 320.582 382.456 319.944 380.805C319.333 379.139 319.042 378.237 319.042 378.237L319 378.251Z" fill="black"/>
<path d="M99.9634 305.13C99.9634 305.13 36.4437 248.984 14.3915 267.597C-7.66068 286.211 13.3368 337.068 82.2828 372.851" fill="white"/>
<path d="M99.9634 305.13C99.9634 305.13 96.8131 303.061 91.3035 299.453C88.5557 297.662 85.1694 295.538 81.3113 293.137C77.4394 290.736 73.0678 288.085 68.2382 285.336C63.4087 282.588 58.1489 279.729 52.4867 277.064C46.8383 274.454 40.7597 271.914 34.5563 270.471C31.4615 269.735 28.3389 269.318 25.5217 269.485C22.6905 269.652 20.3174 270.415 18.5826 271.775C16.3205 273.58 14.905 275.606 13.7115 278.188C12.5735 280.728 12.0322 283.671 12.0184 286.752C11.9767 289.834 12.4486 293.068 13.2674 296.26C13.6282 297.856 14.2249 299.439 14.7107 301.035C15.3352 302.603 15.8764 304.2 16.6258 305.726C17.9859 308.836 19.6652 311.82 21.386 314.762C23.1763 317.663 25.0637 320.481 27.076 323.174C35.1114 333.945 44.3125 342.981 52.6671 350.213C56.8166 353.877 60.8274 357.028 64.394 359.818C68.0023 362.566 71.1665 364.981 73.8449 366.869C79.2157 370.686 82.2828 372.865 82.2828 372.865C82.2828 372.865 81.3946 372.532 79.7431 371.894C78.1055 371.227 75.6491 370.353 72.6514 368.937C69.6122 367.605 65.9761 365.883 61.8821 363.718C57.802 361.525 53.2361 358.943 48.462 355.765C43.6741 352.614 38.6087 348.949 33.5709 344.633C28.5332 340.33 23.4538 335.43 18.7214 329.795C13.989 324.173 9.52033 317.872 6.07858 310.682C4.32995 307.101 2.78945 303.325 1.7486 299.286C0.679993 295.261 -0.0139084 291.013 0.0138474 286.599C0.0693588 282.199 0.902054 277.591 2.84498 273.33C4.70463 269.11 8.00762 265.071 11.6298 262.448C12.6845 261.726 13.7253 260.949 14.905 260.491C16.0569 259.963 17.1949 259.422 18.3745 259.186C19.5541 258.867 20.7199 258.561 21.8579 258.492C22.9959 258.367 24.1616 258.214 25.2302 258.27C29.6434 258.242 33.6542 259.061 37.318 260.199C40.9957 261.323 44.4374 262.684 47.6293 264.238C50.849 265.751 53.8606 267.417 56.7333 269.11C62.4372 272.525 67.5304 276.106 72.0824 279.562C81.1725 286.502 88.0977 292.957 92.8023 297.606C95.1755 299.911 96.938 301.84 98.1454 303.117C99.3527 304.422 99.9634 305.13 99.9634 305.13Z" fill="black"/>
<path d="M235.552 254.258C235.552 257.798 234.608 261.129 232.943 264.002C229.584 269.832 223.297 273.746 216.081 273.746C208.864 273.746 202.564 269.832 199.219 264.002C197.554 261.129 196.61 257.798 196.61 254.258C196.61 243.501 205.325 234.784 216.081 234.784C226.836 234.784 235.552 243.501 235.552 254.258Z" fill="black"/>
<path d="M227.003 262.295C224.838 266.071 220.758 268.611 216.095 268.611C211.432 268.611 207.352 266.071 205.187 262.295C207.352 258.52 211.432 255.98 216.095 255.98C220.758 255.98 224.838 258.52 227.003 262.295Z" fill="white"/>
</g>
<defs>
<clipPath id="clip0_54_1312">
<rect width="408" height="558" fill="white" transform="matrix(-1 0 0 1 408 0)"/>
</clipPath>
</defs>
</svg>
