<svg width="149" height="55" viewBox="0 0 149 55" fill="none" xmlns="http://www.w3.org/2000/svg">
<path d="M142.85 37.38C142.63 37.3 142.38 37.18 142.13 37.01C141.36 36.47 140.59 35.42 140.59 33.59V22.8C140.59 19.84 139.9 17.51 138.57 15.78C136.66 13.25 133.4 12.01 128.99 12.01C123.7 12.01 119.39 14.52 119.39 17.25C119.39 17.96 119.69 18.46 120.14 18.81C120.56 19.15 121.14 19.34 121.73 19.42C123.26 17.29 125.98 15.72 129.25 15.72C131.69 15.72 133.53 16.2 134.68 17.42C135.56 18.38 136.02 19.79 136.02 21.78V24.18C134.6 23.69 132.8 22.76 128.87 22.76C127.3 22.76 125.88 22.95 124.61 23.3C122.16 23.9 119.05 25.17 115.94 27.82C111.66 31.47 111.15 36.74 104.17 35.91C100.82 35.39 97.87 32.83 97.87 26.31C97.87 19.05 101.2 15.89 105.73 15.89C109.05 15.89 111.39 17.14 113.08 18.88V22.37C113.08 23.45 113.74 23.98 115.16 23.98H115.6C117.08 23.98 117.68 23.44 117.68 22.37V16.81V1.96C117.68 0.65 117.02 0 115.61 0H115.17C113.7 0 113.1 0.65 113.1 1.96V14.4C111.57 13.15 109.12 11.89 105.79 11.89C99.03 11.89 93.41 16.42 93.41 26.35C93.41 35.56 98.34 39.52 104.15 39.71C105.56 39.85 111.14 40.07 114.78 34.99C116.23 32.96 117.2 31.79 117.88 31.08C117.95 30.98 121.91 26.49 126.79 26.23C127.11 26.21 127.72 26.13 129.04 26.18C129.64 26.18 130.22 26.21 130.78 26.28C131.82 26.43 132.67 26.6 133.35 26.76C134.34 27.02 135.24 27.35 136.03 27.7H136.02V28.72C136.02 32.81 132.64 36.19 128.11 36.19C127.93 36.19 127.75 36.19 127.58 36.17C125.51 35.86 124.3 35.21 123.53 34.47C123.49 34.42 123.44 34.37 123.4 34.32C123.4 34.32 123.4 34.32 123.39 34.32C122.52 33.41 122.25 32.39 121.83 31.74C120.71 32.04 119.29 33.08 119.29 34.84C119.29 35.88 119.54 36.65 120.15 37.24V37.26C121.62 38.71 123.77 39.61 126.49 39.77H126.5C126.63 39.77 126.76 39.79 126.89 39.79C127.05 39.79 127.2 39.79 127.37 39.79H127.4C131.99 39.79 134.76 37.22 136.24 35.26C136.26 37.07 137 38.52 138.3 39.13C138.74 39.35 139.25 39.46 139.82 39.46C141.13 39.46 142.38 38.64 142.87 37.39C142.86 37.39 142.85 37.38 142.84 37.38H142.85ZM96.94 18.44C95.5 20.61 94.7 23.39 94.67 26.01C94.67 25.94 94.3 25.49 94.3 25.24C94.32 22.72 95.06 19.94 96.45 17.84C97.67 16 99.58 14.34 101.63 13.49C103.28 12.81 105.87 12.7 107.64 12.82C107.86 12.84 107.08 13.63 107.09 13.63C105.35 13.51 103.59 13.58 101.97 14.29C100.02 15.16 98.11 16.64 96.93 18.43L96.94 18.44ZM135.31 25.63C133.1 24.63 130.41 24.21 128.01 24.23C125.47 24.25 122.77 24.93 120.59 26.29C120.2 26.53 120.95 25.76 121.09 25.68C123.31 24.3 126.17 23.45 128.78 23.5C131.22 23.55 133.89 23.89 136.14 24.91C136.14 24.91 135.55 25.74 135.31 25.63Z" fill="#FFFFFF"/>
<path d="M92.21 33.6V22.86C92.21 15.65 88.09 12.17 80.71 12.17C75.45 12.17 71.16 14.67 71.16 17.38C71.16 18.74 72.25 19.33 73.44 19.5C74.96 17.38 77.67 15.81 80.93 15.81C85.27 15.81 87.71 17.33 87.71 21.89V24.28C86.3 23.79 84.51 22.87 80.6 22.87C74.99 22.87 71.16 25.25 70.01 29.05C69.99 29.09 69.97 29.13 69.96 29.17C69.78 29.83 69.78 31.06 69.78 31.06C69.78 32.13 70.41 32.67 71.78 32.67H72.2C73.62 32.67 74.15 32.21 74.15 31.14C74.15 31.14 74.13 30.77 74.18 30.41C74.21 30.26 74.24 30.11 74.28 29.96C74.28 29.96 74.28 29.96 74.28 29.95C74.29 29.92 74.3 29.89 74.31 29.85C75.01 27.62 77.3 26.22 80.7 26.22C83.41 26.22 85.85 26.93 87.7 27.74V28.77C87.7 30.83 86.84 32.7 85.4 34.06L85.31 34.15C85.31 34.15 85.08 34.36 84.49 34.78C84.26 34.94 84.07 35.09 83.82 35.22L83.77 35.25C82.17 36.19 79.33 37.24 75.04 36.69C71.35 36.21 67.72 32.15 66.74 31.17C66.74 31.17 66.74 31.17 66.73 31.17C64.27 28.58 61.48 25.95 59.15 24.09C64.52 20.29 71.19 15.41 71.19 13.78C71.19 13.13 70.59 12.59 69.73 12.59H68.21C65.44 12.59 62.68 17.8 54.81 23.28V2.46997C54.81 1.00997 54.21 0.409973 52.75 0.409973H52.42C50.96 0.409973 50.36 1.00997 50.36 2.46997V37.08C49.97 36.98 49.55 36.72 49.11 36.26C49.08 36.23 49.06 36.21 49.04 36.19C48.62 35.59 48.32 34.76 48.32 33.6V22.86C48.32 15.65 44.2 12.17 36.82 12.17C31.56 12.17 27.27 14.67 27.27 17.38C27.27 18.74 28.36 19.33 29.55 19.5C31.07 17.38 33.78 15.81 37.04 15.81C41.38 15.81 43.82 17.33 43.82 21.89V24.28C42.41 23.79 40.02 22.81 36.11 22.81C32.94 22.81 30.34 23.57 28.47 24.92C26.9 21.23 22.72 18.98 15.27 17.31C14.4 17.11 13.62 16.92 12.91 16.72C8.17 15.38 7.02 13.9 7.02 11.33C7.02 8.49997 9.38 6.81997 12.91 6.32997C13.63 6.22997 14.39 6.17997 15.19 6.17997C19.81 6.17997 23.14 7.99997 23.74 9.50997C25.56 8.89997 26.69 8.21997 26.69 6.62997C26.69 3.67997 22.75 1.17997 15.41 1.17997C14.58 1.17997 13.74 1.23997 12.9 1.34997C6.88 2.15997 0.98 5.91997 0.98 12.3C0.98 17.01 4.01 20.47 12.92 22.52C13.03 22.54 13.13 22.57 13.23 22.59C21.18 24.33 23.45 25.84 23.45 29.18C23.45 32.28 20.27 34.93 14.45 34.93C13.92 34.93 13.42 34.91 12.93 34.89C6.95 34.55 3.69 32.25 2.5 30.02C1.06 30.7 0 31.99 0 33.8C0 37.39 5.38 39.63 12.93 39.77C13.18 39.77 13.44 39.77 13.7 39.77C19.94 39.77 25.14 37.63 27.63 33.97C27.66 33.94 27.68 33.9 27.71 33.85C27.75 33.78 27.8 33.71 27.85 33.61C27.94 33.47 28.02 33.33 28.1 33.18C28.12 33.15 28.14 33.11 28.16 33.08C28.16 33.08 28.32 32.79 28.48 32.4C28.48 32.38 28.5 32.36 28.51 32.34C28.51 32.32 28.52 32.31 28.53 32.29C28.88 31.43 29.37 30.14 29.49 29.81C29.81 28.92 29.62 29.46 29.8 29C30.91 26.63 33.38 26.17 36.22 26.17C39.06 26.17 41.98 26.93 43.82 27.75V28.78C43.82 32.67 40.74 35.91 36.54 36.19C34.8 36.12 33.74 35.62 32.95 35.08C32.9 35.04 32.85 35 32.8 34.96C32.8 34.96 32.8 34.96 32.79 34.96C31.78 34.2 31.35 33.24 30.83 32.67C29.78 33.15 28.54 34.41 28.83 36.14C29 37.17 29.37 37.89 30.07 38.37V38.39C31.76 39.58 34.03 40.11 36.73 39.83C36.73 39.83 36.73 39.83 36.74 39.83C36.87 39.82 37 39.8 37.13 39.79C37.29 39.77 37.44 39.75 37.6 39.72C37.6 39.72 37.62 39.72 37.63 39.72C38.51 39.57 39.24 39.33 39.83 39.03C41.91 38.14 43.07 36.53 44.03 35.25C44.03 36.12 44.2 36.91 44.51 37.57C44.56 37.69 44.65 37.87 44.81 38.08C45.23 38.69 45.81 39.13 46.53 39.34C47.2 39.61 48.08 39.81 49.24 39.85C52.02 39.94 53.48 39.6 54.2 39.01C54.22 38.99 54.24 38.97 54.26 38.96C54.27 38.95 54.29 38.94 54.3 38.92C54.32 38.9 54.34 38.88 54.37 38.85C54.81 38.39 54.88 37.81 54.82 37.18V25.59C58.4 28.52 59.6 29.73 63.13 33.59C63.13 33.59 65.13 35.79 67.46 37.39C69.17 38.56 72.29 40.23 76.25 40.19C80.33 40.14 82.55 39.68 84.62 38.3C85.8 37.58 86.72 36.7 87.43 35.87C87.45 35.85 87.48 35.82 87.5 35.8C87.65 35.61 87.79 35.43 87.92 35.26C87.92 36.18 88.11 37.01 88.46 37.69C89.04 38.8 90.07 39.49 91.45 39.49C92.75 39.49 94 38.68 94.49 37.43C93.57 37.11 92.21 36.07 92.21 33.63V33.6ZM78.25 23.86C76.69 24.16 75.2 24.69 74.03 25.73C72.91 26.73 71.8 28.14 71.63 29.7C71.6 29.93 70.54 29.94 70.54 29.89C70.82 27.4 73.19 25.3 75.33 24.36C76.36 23.91 77.51 23.75 78.68 23.57L78.24 23.87L78.25 23.86ZM3.41 11.53C3.41 11.53 2.16 11.18 2.19 11.01C3.01 7.01997 5.49 4.16997 9.38 2.93997C10.54 2.57997 11.73 2.33997 12.93 2.21997C15.57 1.94997 18.28 2.21997 20.86 2.78997C21.15 2.84997 21.44 2.99997 21.7 3.11997C21.74 3.13997 22.14 3.33997 21.89 3.28997C19 2.63997 15.89 2.37997 12.93 2.87997C11.93 3.04997 10.95 3.29997 10.01 3.65997C6.4 5.01997 4.19 7.75997 3.42 11.53H3.41ZM34.77 24.28C32.72 24.24 30.26 24.8 28.72 26.13C28.14 26.64 28.54 26.05 28.82 25.8C30.64 24.22 33.14 23.47 35.52 23.52C35.52 23.52 35.04 24.28 34.77 24.28Z" fill="#FFFFFF"/>
<path d="M2.78001 45.29C2.78001 45.74 2.41001 46.11 1.96001 46.11C1.51001 46.11 1.14001 45.74 1.14001 45.29C1.14001 44.84 1.50001 44.46 1.96001 44.46C2.42001 44.46 2.78001 44.85 2.78001 45.29ZM2.01001 47.39C2.40001 47.39 2.58001 47.57 2.58001 47.94V54.16C2.58001 54.55 2.40001 54.73 2.01001 54.73H1.92001C1.53001 54.73 1.35001 54.55 1.35001 54.16V47.94C1.35001 47.57 1.53001 47.39 1.92001 47.39H2.01001Z" fill="#FFFFFF"/>
<path d="M10.69 43.99C11.08 43.99 11.26 44.17 11.26 44.53V54.19C11.26 54.58 11.08 54.73 10.69 54.73H10.57C10.18 54.73 10 54.58 10 54.22V53.49C9.6 54.2 8.78 54.83 7.68 54.83C6.04 54.83 4.63 53.76 4.63 51.18C4.63 48.47 6.16 47.24 8.01 47.24C8.92 47.24 9.59 47.58 10 47.92V44.53C10 44.17 10.16 43.99 10.57 43.99H10.69ZM5.85 51.17C5.85 53.19 6.89 53.82 7.95 53.82C9.5 53.82 10 52.52 10 51.23V49.15C9.54 48.67 8.9 48.33 7.99 48.33C6.75 48.33 5.85 49.19 5.85 51.17Z" fill="#FFFFFF"/>
<path d="M19.39 49.66C19.39 51.07 18.14 51.83 16.49 51.83C15.48 51.83 14.6 51.59 14.18 51.43C14.18 52.92 15.37 53.84 16.74 53.84C18.01 53.84 18.62 53.33 18.82 52.81C19.13 52.81 19.43 52.99 19.43 53.36C19.43 53.99 18.4 54.83 16.72 54.83C14.78 54.83 13.01 53.7 13.01 51.05C13.01 48.4 14.81 47.24 16.48 47.24C18.3 47.24 19.38 48.33 19.38 49.65L19.39 49.66ZM14.19 50.51C14.55 50.63 15.47 50.87 16.32 50.87C17.6 50.87 18.26 50.47 18.26 49.62C18.26 48.88 17.56 48.24 16.46 48.24C15.16 48.24 14.21 49.4 14.2 50.52L14.19 50.51Z" fill="#FFFFFF"/>
<path d="M22.82 45.29C22.82 45.74 22.45 46.11 22 46.11C21.55 46.11 21.18 45.74 21.18 45.29C21.18 44.84 21.54 44.46 22 44.46C22.46 44.46 22.82 44.85 22.82 45.29ZM22.05 47.39C22.44 47.39 22.62 47.57 22.62 47.94V54.16C22.62 54.55 22.44 54.73 22.05 54.73H21.96C21.57 54.73 21.39 54.55 21.39 54.16V47.94C21.39 47.57 21.57 47.39 21.96 47.39H22.05Z" fill="#FFFFFF"/>
<path d="M30.8 50.2V53.15C30.8 53.82 31.17 54.1 31.43 54.19C31.3 54.53 30.95 54.76 30.6 54.76C29.99 54.76 29.63 54.27 29.63 53.6C29.23 54.14 28.47 54.85 27.2 54.85C25.58 54.85 24.61 53.94 24.61 52.6C24.61 51.16 25.76 50.2 27.62 50.2C28.69 50.2 29.18 50.45 29.57 50.59V49.94C29.57 48.69 28.9 48.27 27.71 48.27C26.82 48.27 26.07 48.7 25.66 49.28C25.33 49.24 25.03 49.07 25.03 48.7C25.03 47.96 26.21 47.27 27.65 47.27C29.67 47.27 30.81 48.22 30.81 50.2H30.8ZM25.83 52.54C25.83 53.33 26.43 53.86 27.41 53.86C28.65 53.86 29.57 52.94 29.57 51.82V51.54C29.06 51.32 28.39 51.12 27.65 51.12C26.52 51.12 25.83 51.69 25.83 52.53V52.54Z" fill="#FFFFFF"/>
<path d="M37.75 48.31C37.75 48.62 37.53 48.76 37.17 48.88C37.05 48.58 36.4 48.23 35.49 48.23C34.58 48.23 33.88 48.57 33.88 49.24C33.88 49.82 34.18 50.12 35.5 50.42C37.42 50.85 38.24 51.48 38.24 52.68C38.24 54 36.92 54.84 35.19 54.84C33.63 54.84 32.5 54.39 32.5 53.66C32.5 53.3 32.71 53.05 32.99 52.92C33.24 53.4 33.97 53.89 35.34 53.89C36.49 53.89 37.11 53.37 37.11 52.76C37.11 52.1 36.66 51.81 35.1 51.46C33.3 51.06 32.69 50.37 32.69 49.44C32.69 48.01 34.19 47.25 35.53 47.25C36.97 47.25 37.75 47.74 37.75 48.32V48.31Z" fill="#FFFFFF"/>
<path d="M50.2 49.66C50.2 51.07 48.95 51.83 47.3 51.83C46.29 51.83 45.41 51.59 44.99 51.43C44.99 52.92 46.18 53.84 47.55 53.84C48.82 53.84 49.43 53.33 49.63 52.81C49.94 52.81 50.24 52.99 50.24 53.36C50.24 53.99 49.21 54.83 47.53 54.83C45.59 54.83 43.82 53.7 43.82 51.05C43.82 48.4 45.62 47.24 47.29 47.24C49.11 47.24 50.19 48.33 50.19 49.65L50.2 49.66ZM45 50.51C45.36 50.63 46.28 50.87 47.13 50.87C48.41 50.87 49.07 50.47 49.07 49.62C49.07 48.88 48.37 48.24 47.27 48.24C45.97 48.24 45.02 49.4 45.01 50.52L45 50.51Z" fill="#FFFFFF"/>
<path d="M52.61 47.38C53.01 47.38 53.19 47.56 53.19 47.95V48.58C53.61 47.79 54.28 47.28 55.29 47.28C56.53 47.28 57.33 47.99 57.63 49.11C57.94 47.95 58.88 47.26 59.98 47.26C61.5 47.26 62.54 48.09 62.54 50.25V54.16C62.54 54.55 62.36 54.71 61.94 54.71H61.85C61.46 54.71 61.28 54.55 61.28 54.16V50.32C61.28 48.79 60.61 48.28 59.73 48.28C58.14 48.28 57.85 49.68 57.85 51.21V54.16C57.85 54.55 57.67 54.71 57.27 54.71H57.17C56.78 54.71 56.6 54.55 56.6 54.16V50.32C56.6 48.79 55.92 48.28 55.04 48.28C53.42 48.28 53.18 49.95 53.18 51.17V54.16C53.18 54.55 53 54.71 52.6 54.71H52.51C52.11 54.71 51.94 54.55 51.94 54.16V47.94C51.94 47.54 52.12 47.37 52.51 47.37H52.6L52.61 47.38Z" fill="#FFFFFF"/>
<path d="M69.62 47.38C70.02 47.38 70.2 47.56 70.2 47.95V48.58C70.62 47.79 71.29 47.28 72.3 47.28C73.54 47.28 74.34 47.99 74.64 49.11C74.95 47.95 75.89 47.26 76.99 47.26C78.51 47.26 79.55 48.09 79.55 50.25V54.16C79.55 54.55 79.37 54.71 78.95 54.71H78.86C78.47 54.71 78.29 54.55 78.29 54.16V50.32C78.29 48.79 77.62 48.28 76.74 48.28C75.15 48.28 74.86 49.68 74.86 51.21V54.16C74.86 54.55 74.68 54.71 74.28 54.71H74.18C73.79 54.71 73.61 54.55 73.61 54.16V50.32C73.61 48.79 72.93 48.28 72.05 48.28C70.43 48.28 70.19 49.95 70.19 51.17V54.16C70.19 54.55 70.01 54.71 69.61 54.71H69.52C69.12 54.71 68.95 54.55 68.95 54.16V47.94C68.95 47.54 69.13 47.37 69.52 47.37H69.61L69.62 47.38Z" fill="#FFFFFF"/>
<path d="M88.4 51.06C88.4 53.61 86.66 54.84 84.75 54.84C82.84 54.84 81.1 53.6 81.1 51.06C81.1 48.52 82.84 47.25 84.75 47.25C86.66 47.25 88.4 48.52 88.4 51.06ZM82.37 51.05C82.37 52.88 83.38 53.83 84.75 53.83C86.12 53.83 87.13 52.88 87.13 51.05C87.13 49.22 86.12 48.28 84.75 48.28C83.38 48.28 82.37 49.23 82.37 51.05Z" fill="#FFFFFF"/>
<path d="M90.26 47.4C90.57 47.4 90.77 47.55 90.84 47.86C91.32 49.74 91.94 51.95 92.73 53.53H92.91C93.7 51.95 94.32 49.73 94.8 47.86C94.87 47.55 95.07 47.4 95.38 47.4H95.72C95.99 47.4 96.18 47.5 96.18 47.73C96.18 47.79 96.17 47.86 96.14 47.94C95.54 49.96 94.77 52.29 93.91 54C93.69 54.45 93.48 54.73 92.9 54.73H92.77C92.17 54.73 91.97 54.45 91.74 54C90.88 52.29 90.1 49.97 89.51 47.94C89.48 47.87 89.47 47.79 89.47 47.73C89.47 47.51 89.66 47.4 89.93 47.4H90.27H90.26Z" fill="#FFFFFF"/>
<path d="M99.39 45.29C99.39 45.74 99.02 46.11 98.57 46.11C98.12 46.11 97.75 45.74 97.75 45.29C97.75 44.84 98.11 44.46 98.57 44.46C99.03 44.46 99.39 44.85 99.39 45.29ZM98.62 47.39C99.01 47.39 99.19 47.57 99.19 47.94V54.16C99.19 54.55 99.01 54.73 98.62 54.73H98.53C98.14 54.73 97.96 54.55 97.96 54.16V47.94C97.96 47.57 98.14 47.39 98.53 47.39H98.62Z" fill="#FFFFFF"/>
<path d="M102.26 47.38C102.66 47.38 102.84 47.56 102.84 47.95V48.58C103.26 47.79 103.93 47.28 104.94 47.28C106.18 47.28 106.98 47.99 107.28 49.11C107.59 47.95 108.53 47.26 109.63 47.26C111.15 47.26 112.19 48.09 112.19 50.25V54.16C112.19 54.55 112.01 54.71 111.59 54.71H111.5C111.11 54.71 110.93 54.55 110.93 54.16V50.32C110.93 48.79 110.26 48.28 109.38 48.28C107.79 48.28 107.5 49.68 107.5 51.21V54.16C107.5 54.55 107.32 54.71 106.92 54.71H106.82C106.43 54.71 106.25 54.55 106.25 54.16V50.32C106.25 48.79 105.57 48.28 104.69 48.28C103.07 48.28 102.83 49.95 102.83 51.17V54.16C102.83 54.55 102.65 54.71 102.25 54.71H102.16C101.76 54.71 101.59 54.55 101.59 54.16V47.94C101.59 47.54 101.77 47.37 102.16 47.37H102.25L102.26 47.38Z" fill="#FFFFFF"/>
<path d="M120.12 49.66C120.12 51.07 118.87 51.83 117.22 51.83C116.21 51.83 115.33 51.59 114.91 51.43C114.91 52.92 116.1 53.84 117.47 53.84C118.74 53.84 119.35 53.33 119.55 52.81C119.86 52.81 120.16 52.99 120.16 53.36C120.16 53.99 119.13 54.83 117.45 54.83C115.51 54.83 113.74 53.7 113.74 51.05C113.74 48.4 115.54 47.24 117.21 47.24C119.03 47.24 120.11 48.33 120.11 49.65L120.12 49.66ZM114.92 50.51C115.28 50.63 116.2 50.87 117.05 50.87C118.33 50.87 118.99 50.47 118.99 49.62C118.99 48.88 118.29 48.24 117.19 48.24C115.89 48.24 114.94 49.4 114.93 50.52L114.92 50.51Z" fill="#FFFFFF"/>
<path d="M122.55 47.38C122.94 47.38 123.12 47.54 123.12 47.95V48.68C123.45 48.04 124.27 47.25 125.41 47.25C126.85 47.25 128.15 48.02 128.15 50.26V54.16C128.15 54.56 127.99 54.73 127.58 54.73H127.46C127.09 54.73 126.91 54.57 126.91 54.16V50.3C126.91 48.77 126.2 48.29 125.14 48.29C123.92 48.29 123.13 49.33 123.13 50.89V54.15C123.13 54.55 122.95 54.72 122.55 54.72H122.45C122.05 54.72 121.88 54.56 121.88 54.15V47.94C121.88 47.54 122.07 47.37 122.45 47.37H122.55V47.38Z" fill="#FFFFFF"/>
<path d="M131.48 45.4C131.87 45.4 132.05 45.56 132.05 45.95V47.42H134.1C134.5 47.42 134.68 47.61 134.68 47.93C134.68 48.27 134.47 48.44 134.1 48.44H132.05V52.19C132.05 53.5 132.6 53.89 133.48 53.89C133.82 53.89 134.33 53.76 134.54 53.55C134.78 53.62 134.91 53.85 134.91 54.06C134.91 54.51 134.15 54.85 133.24 54.85C131.89 54.85 130.81 54.19 130.81 52.2V48.45H130.08C129.68 48.45 129.45 48.36 129.45 47.94C129.45 47.55 129.67 47.43 130.08 47.43H130.81V45.96C130.81 45.57 131 45.41 131.38 45.41H131.48V45.4Z" fill="#FFFFFF"/>
<path d="M142.97 51.06C142.97 53.61 141.23 54.84 139.32 54.84C137.41 54.84 135.67 53.6 135.67 51.06C135.67 48.52 137.41 47.25 139.32 47.25C141.23 47.25 142.97 48.52 142.97 51.06ZM136.94 51.05C136.94 52.88 137.95 53.83 139.32 53.83C140.69 53.83 141.7 52.88 141.7 51.05C141.7 49.22 140.69 48.28 139.32 48.28C137.95 48.28 136.94 49.23 136.94 51.05Z" fill="#FFFFFF"/>
<path d="M145.46 7.76999C146.07 7.76999 146.67 8.00999 146.67 8.81999C146.67 9.38999 146.2 9.74999 145.66 9.78999C145.89 10.24 146.47 10.93 146.94 11.26C146.88 11.36 146.79 11.43 146.63 11.43C146.14 11.43 145.59 10.47 145.23 9.80999H144.74V11.18C144.74 11.32 144.68 11.38 144.53 11.38H144.5C144.36 11.38 144.29 11.32 144.29 11.18V7.96999C144.29 7.82999 144.35 7.76999 144.5 7.76999H145.46ZM144.74 9.42999H145.48C145.91 9.42999 146.22 9.20999 146.22 8.80999C146.22 8.36999 145.93 8.16999 145.48 8.16999H144.74V9.42999Z" fill="#FFFFFF"/>
<path d="M145.43 12.37C143.91 12.37 142.67 11.13 142.67 9.60998C142.67 8.08998 143.91 6.84998 145.43 6.84998C146.95 6.84998 148.19 8.08998 148.19 9.60998C148.19 11.13 146.95 12.37 145.43 12.37ZM145.43 7.20998C144.11 7.20998 143.03 8.27998 143.03 9.60998C143.03 10.94 144.1 12.01 145.43 12.01C146.76 12.01 147.83 10.94 147.83 9.60998C147.83 8.27998 146.76 7.20998 145.43 7.20998Z" fill="#FFFFFF"/>
</svg>
